<svg xmlns="http://www.w3.org/2000/svg" width="64" height="64" viewBox="0 0 64 64" fill="none">
  <defs>
    <linearGradient id="bg" x1="0" y1="0" x2="64" y2="64" gradientUnits="userSpaceOnUse">
      <stop offset="0" stop-color="#3B82F6"/>
      <stop offset="0.6" stop-color="#2563EB"/>
      <stop offset="1" stop-color="#1D4ED8"/>
    </linearGradient>
  </defs>
  <rect width="64" height="64" rx="16" fill="url(#bg)"/>
  <g transform="translate(16 14)" stroke="#FFFFFF" stroke-width="2.6" stroke-linecap="round" stroke-linejoin="round" fill="none">
    <path d="M16 1.5C12.5 4.5 8 6 5 6a1 1 0 0 0-1 1v7c0 8.5 6.5 12 11.5 14a1.5 1.5 0 0 0 1 0C22.5 26 29 22.5 29 14V7a1 1 0 0 0-1-1c-3 0-7.5-1.5-11-4.5a1.7 1.7 0 0 0-1 0Z"/>
    <path d="M11 14.5l3.2 3.2L23 9"/>
  </g>
</svg>
